<svg width="320" height="325" viewBox="0 0 320 325" fill="none" xmlns="http://www.w3.org/2000/svg">
<path d="M220.23 188.93C258.56 210.92 285.56 216.92 310.32 206.86C290.06 250.42 215.059 325.698 144.56 324.84C112.06 324.444 69.0594 314.92 39.5596 265.021L59.9697 276.47L65.1104 273.73C85.5602 301.92 111.56 311.42 140.06 311.42C180.06 311.42 226.56 277.92 226.56 222.42C226.56 203.42 220.23 188.93 220.23 188.93ZM124.56 149.42C178.62 141.35 211.56 182.42 211.56 222.92C211.56 263.92 174.9 296.42 140.06 296.42C113.56 296.42 94.0595 286.92 78.5596 266.68L95.0596 257.92C95.0596 257.92 109.17 276.92 137.56 276.92C165.95 276.92 189.91 254.208 189.91 222.92C189.91 187.42 159.56 169.92 138.56 169.92C109.56 169.42 95.3896 189.37 95.3896 189.37C94.1197 184.92 99.1199 154.85 124.56 149.42ZM138.56 184.92C157.06 184.92 174.9 202.42 174.9 222.92C174.9 243.42 159.56 261.92 137.06 261.92C125.56 261.92 116.06 257.419 109.17 250.77L172.06 216.92L104.6 202.13C113.56 189.42 125.56 184.92 138.56 184.92ZM111.24 138.12C80.5603 153.42 71.5597 193.42 89.0996 214.12L129.83 222.91L60.1201 259.35L0 225.56L45.9102 0L111.24 138.12ZM149.49 87.4004C252.06 77.4205 330.09 125.85 318.56 183.92C274.09 233.349 145.561 124.421 149.49 87.4004ZM134.31 89.6201C134.56 103.42 143.56 119.42 157.06 135.42C148.56 133.42 139.56 132.42 125.91 134.09L108.31 96.8604C117.559 93.4204 124.56 91.4201 134.31 89.6201Z" fill="white"/>
</svg>
