<svg width="320" height="325" viewBox="0 0 320 325" fill="none" xmlns="http://www.w3.org/2000/svg">
<path d="M149.49 87.4C145.56 124.42 274.09 233.35 318.56 183.92C330.09 125.85 252.06 77.42 149.49 87.4Z" fill="#16425B"/>
<path d="M310.32 206.86C285.56 216.92 258.56 210.92 220.23 188.93C220.23 188.93 226.56 203.42 226.56 222.42C226.56 277.92 180.06 311.42 140.06 311.42C111.56 311.42 85.56 301.92 65.11 273.73L59.97 276.47L39.56 265.02C69.06 314.92 112.06 324.444 144.56 324.84C215.06 325.698 290.06 250.42 310.32 206.86Z" fill="#16425B"/>
<path d="M95.06 257.92L78.56 266.68C94.06 286.92 113.56 296.42 140.06 296.42C174.9 296.42 211.56 263.92 211.56 222.92C211.56 182.42 178.62 141.35 124.56 149.42C99.12 154.85 94.12 184.92 95.39 189.37C95.39 189.37 109.56 169.42 138.56 169.92C159.56 169.92 189.91 187.42 189.91 222.92C189.91 254.208 165.95 276.92 137.56 276.92C109.17 276.92 95.06 257.92 95.06 257.92Z" fill="#16425B"/>
<path d="M172.06 216.92L109.17 250.77C116.06 257.42 125.56 261.92 137.06 261.92C159.56 261.92 174.9 243.42 174.9 222.92C174.9 202.42 157.06 184.92 138.56 184.92C125.56 184.92 113.56 189.42 104.6 202.13L172.06 216.92Z" fill="#16425B"/>
<path d="M60.12 259.35L129.83 222.91L89.1 214.12C71.56 193.42 80.56 153.42 111.24 138.12L45.91 0L0 225.56L60.12 259.35Z" fill="#16425B"/>
<path d="M134.31 89.62C124.56 91.42 117.56 93.42 108.31 96.86L125.91 134.09C139.56 132.42 148.56 133.42 157.06 135.42C143.56 119.42 134.56 103.42 134.31 89.62Z" fill="#16425B"/>
</svg>
