<svg xmlns="http://www.w3.org/2000/svg" xmlns:xlink="http://www.w3.org/1999/xlink" style="display:none">
  <!-- Search Icon -->
  <symbol id="search" viewBox="0 0 24 24">
    <path fill="currentColor" d="M14.843 16.368a8 8 0 1 1 1.428-1.4l4.427 4.316a1 1 0 1 1-1.396 1.432zM16 10a6 6 0 1 0-12 0a6 6 0 0 0 12 0"/>
  </symbol>
  <!-- Laptop/Phone Icon -->
  <symbol id="laptop-phone" viewBox="0 0 24 24">
    <path fill="currentColor" d="M8.254 8.003c.967 0 1.75.783 1.75 1.75v9.5a1.75 1.75 0 0 1-1.75 1.75H3.75A1.75 1.75 0 0 1 2 19.253v-9.5c0-.967.784-1.75 1.75-1.75zm-2.002 9.495h-.5a.75.75 0 1 0 0 1.5h.5a.75.75 0 0 0 0-1.5M21.25 16.5a.75.75 0 0 1 .102 1.493L21.25 18L11 17.999v-1.5zm-3-11.5c.966 0 1.75.784 1.75 1.75v7.5A1.75 1.75 0 0 1 18.25 16H11V9a2 2 0 0 0-1.85-1.995L9 7l-5-.001V6.75C4 5.784 4.784 5 5.75 5z"/>
  </symbol>
  <!-- BookMarck Icon -->
  <symbol id="bookmark" viewBox="0 0 24 24">
    <path fill="currentColor" d="M6.19 21.855a.75.75 0 0 1-1.187-.61V6.25A3.25 3.25 0 0 1 8.253 3h7.498a3.25 3.25 0 0 1 3.25 3.25v14.996a.75.75 0 0 1-1.188.609l-5.81-4.181z"/>
  </symbol>
  <!-- Car Icon -->
  <symbol id="car" viewBox="0 0 24 24">
    <path fill="currentColor" d="M6 2a1 1 0 0 1 .993.883L7 3v1.068l13.071.935A1 1 0 0 1 21 6.027l-.01.114l-1 7a1 1 0 0 1-.877.853L19 14H7v2h10a3 3 0 1 1-2.995 3.176L14 19l.005-.176q.027-.433.166-.824H8.829a3 3 0 1 1-5.824 1.176L3 19l.005-.176A3 3 0 0 1 5 16.17V4H4a1 1 0 0 1-.993-.883L3 3a1 1 0 0 1 .883-.993L4 2zm0 16a1 1 0 1 0 0 2a1 1 0 0 0 0-2m11 0a1 1 0 1 0 0 2a1 1 0 0 0 0-2"/>
  </symbol>
  <!-- Invoice Icon -->
  <symbol id="invoice" viewBox="0 0 24 24">
    <g fill="currentColor">
      <path d="m12 2l.117.007a1 1 0 0 1 .876.876L13 3v4l.005.15a2 2 0 0 0 1.838 1.844L15 9h4l.117.007a1 1 0 0 1 .876.876L20 10v9a3 3 0 0 1-2.824 2.995L17 22H7a3 3 0 0 1-2.995-2.824L4 19V5a3 3 0 0 1 2.824-2.995L7 2zm4 15h-2a1 1 0 0 0 0 2h2a1 1 0 0 0 0-2m0-4H8a1 1 0 0 0 0 2h8a1 1 0 0 0 0-2M9 6H8a1 1 0 1 0 0 2h1a1 1 0 1 0 0-2"/>
      <path d="M19 7h-4l-.001-4.001z"/>
    </g>
  </symbol>
  <!-- History Icon -->
  <symbol id="history" viewBox="0 0 24 24">
    <path fill="currentColor" d="M12 5a7 7 0 1 1-6.946 6.124a1 1 0 1 0-1.984-.248Q3 11.43 3 12a9 9 0 1 0 4-7.484V4a1 1 0 0 0-2 0v3a1 1 0 0 0 1 1h3a1 1 0 0 0 0-2h-.608A6.97 6.97 0 0 1 12 5m1 3a1 1 0 1 0-2 0v4a1 1 0 0 0 1 1h2.5a1 1 0 1 0 0-2H13z"/>
  </symbol>
  <!-- person Icon -->
  <symbol id="person" viewBox="0 0 28 28">
    <path fill="currentColor" d="M21 16a3 3 0 0 1 3 3v.715C24 23.292 19.79 26 14 26S4 23.433 4 19.715V19a3 3 0 0 1 3-3zM14 2a6 6 0 1 1 0 12a6 6 0 0 1 0-12"/>
  </symbol>
  <!-- Settings icon -->
  <symbol id="settings" viewBox="0 0 24 24">
    <path fill="currentColor" d="M12.012 2.25c.734.008 1.465.093 2.182.253a.75.75 0 0 1 .582.649l.17 1.527a1.384 1.384 0 0 0 1.927 1.116l1.4-.615a.75.75 0 0 1 .85.174a9.8 9.8 0 0 1 2.205 3.792a.75.75 0 0 1-.272.825l-1.241.916a1.38 1.38 0 0 0 0 2.226l1.243.915a.75.75 0 0 1 .272.826a9.8 9.8 0 0 1-2.204 3.792a.75.75 0 0 1-.849.175l-1.406-.617a1.38 1.38 0 0 0-1.926 1.114l-.17 1.526a.75.75 0 0 1-.571.647a9.5 9.5 0 0 1-4.406 0a.75.75 0 0 1-.572-.647l-.169-1.524a1.382 1.382 0 0 0-1.925-1.11l-1.406.616a.75.75 0 0 1-.85-.175a9.8 9.8 0 0 1-2.203-3.796a.75.75 0 0 1 .272-.826l1.243-.916a1.38 1.38 0 0 0 0-2.226l-1.243-.914a.75.75 0 0 1-.272-.826a9.8 9.8 0 0 1 2.205-3.792a.75.75 0 0 1 .85-.174l1.4.615a1.387 1.387 0 0 0 1.93-1.118l.17-1.526a.75.75 0 0 1 .583-.65q1.074-.238 2.201-.252M12 9a3 3 0 1 0 0 6a3 3 0 0 0 0-6"/>
  </symbol>
  <!-- Instagram Icon -->
  <symbol id="instagram" viewBox="0 0 256 256">
    <path fill="#fff" d="M128 23.064c34.177 0 38.225.13 51.722.745 12.48.57 19.258 2.655 23.769 4.408 5.974 2.322 10.238 5.096 14.717 9.575 4.48 4.479 7.253 8.743 9.575 14.717 1.753 4.511 3.838 11.289 4.408 23.768.615 13.498.745 17.546.745 51.723 0 34.178-.13 38.226-.745 51.723-.57 12.48-2.655 19.257-4.408 23.768-2.322 5.974-5.096 10.239-9.575 14.718-4.479 4.479-8.743 7.253-14.717 9.574-4.511 1.753-11.289 3.839-23.769 4.408-13.495.616-17.543.746-51.722.746-34.18 0-38.228-.13-51.723-.746-12.48-.57-19.257-2.655-23.768-4.408-5.974-2.321-10.239-5.095-14.718-9.574-4.479-4.48-7.253-8.744-9.574-14.718-1.753-4.51-3.839-11.288-4.408-23.768-.616-13.497-.746-17.545-.746-51.723 0-34.177.13-38.225.746-51.722.57-12.48 2.655-19.258 4.408-23.769 2.321-5.974 5.095-10.238 9.574-14.717 4.48-4.48 8.744-7.253 14.718-9.575 4.51-1.753 11.289-3.838 23.768-4.408 13.497-.615 17.545-.745 51.723-.745M128 0C93.237 0 88.878.147 75.226.77c-13.625.622-22.93 2.786-31.071 5.95-8.418 3.271-15.556 7.648-22.672 14.764C14.367 28.6 9.991 35.738 6.72 44.155 3.555 52.297 1.392 61.602.77 75.226.147 88.878 0 93.237 0 128c0 34.763.147 39.122.77 52.774.622 13.625 2.785 22.93 5.95 31.071 3.27 8.417 7.647 15.556 14.763 22.672 7.116 7.116 14.254 11.492 22.672 14.763 8.142 3.165 17.446 5.328 31.07 5.95 13.653.623 18.012.77 52.775.77s39.122-.147 52.774-.77c13.624-.622 22.929-2.785 31.07-5.95 8.418-3.27 15.556-7.647 22.672-14.763 7.116-7.116 11.493-14.254 14.764-22.672 3.164-8.142 5.328-17.446 5.95-31.07.623-13.653.77-18.012.77-52.775s-.147-39.122-.77-52.774c-.622-13.624-2.786-22.929-5.95-31.07-3.271-8.418-7.648-15.556-14.764-22.672C227.4 14.368 220.262 9.99 211.845 6.72c-8.142-3.164-17.447-5.328-31.071-5.95C167.122.147 162.763 0 128 0Zm0 62.27C91.698 62.27 62.27 91.7 62.27 128c0 36.302 29.428 65.73 65.73 65.73 36.301 0 65.73-29.428 65.73-65.73 0-36.301-29.429-65.73-65.73-65.73Zm0 108.397c-23.564 0-42.667-19.103-42.667-42.667S104.436 85.333 128 85.333s42.667 19.103 42.667 42.667-19.103 42.667-42.667 42.667Zm83.686-110.994c0 8.484-6.876 15.36-15.36 15.36-8.483 0-15.36-6.876-15.36-15.36 0-8.483 6.877-15.36 15.36-15.36 8.484 0 15.36 6.877 15.36 15.36Z"/>
  </symbol>
  <!-- X (Twitter) Icon -->
  <symbol id="x" viewBox="0 0 1200 1227">
    <path fill="#fff" d="M714.163 519.284 1160.89 0h-105.86L667.137 450.887 357.328 0H0l468.492 681.821L0 1226.37h105.866l409.625-476.152 327.181 476.152H1200L714.137 519.284h.026ZM569.165 687.828l-47.468-67.894-377.686-540.24h162.604l304.797 435.991 47.468 67.894 396.2 566.721H892.476L569.165 687.854v-.026Z"/>
  </symbol>
  <!-- YouTube Icon -->
  <symbol id="youtube" viewBox="0 0 256 180">
    <path d="M250.346 28.075A32.18 32.18 0 0 0 227.69 5.418C207.824 0 127.87 0 127.87 0S47.912.164 28.046 5.582A32.18 32.18 0 0 0 5.39 28.24c-6.009 35.298-8.34 89.084.165 122.97a32.18 32.18 0 0 0 22.656 22.657c19.866 5.418 99.822 5.418 99.822 5.418s79.955 0 99.82-5.418a32.18 32.18 0 0 0 22.657-22.657c6.338-35.348 8.291-89.1-.164-123.134Z" fill="red"/>
    <path fill="#FFF" d="m102.421 128.06 66.328-38.418-66.328-38.418z"/>
  </symbol>
  <!-- LinkedIn Icon -->
  <symbol id="linkedin" viewBox="0 0 256 256">
    <path d="M218.123 218.127h-37.931v-59.403c0-14.165-.253-32.4-19.728-32.4-19.756 0-22.779 15.434-22.779 31.369v60.43h-37.93V95.967h36.413v16.694h.51a39.907 39.907 0 0 1 35.928-19.733c38.445 0 45.533 25.288 45.533 58.186l-.016 67.013ZM56.955 79.27c-12.157.002-22.014-9.852-22.016-22.009-.002-12.157 9.851-22.014 22.008-22.016 12.157-.003 22.014 9.851 22.016 22.008A22.013 22.013 0 0 1 56.955 79.27m18.966 138.858H37.95V95.967h37.97v122.16ZM237.033.018H18.89C8.58-.098.125 8.161-.001 18.471v219.053c.122 10.315 8.576 18.582 18.89 18.474h218.144c10.336.128 18.823-8.139 18.966-18.474V18.454c-.147-10.33-8.635-18.588-18.966-18.453" fill="#0A66C2"/>
  </symbol>
  <!-- GitHub Icon -->
  <symbol id="github" viewBox="0 0 1024 1024">
    <path fill-rule="evenodd" clip-rule="evenodd" d="M8 0C3.58 0 0 3.58 0 8C0 11.54 2.29 14.53 5.47 15.59C5.87 15.66 6.02 15.42 6.02 15.21C6.02 15.02 6.01 14.39 6.01 13.72C4 14.09 3.48 13.23 3.32 12.78C3.23 12.55 2.84 11.84 2.5 11.65C2.22 11.5 1.82 11.13 2.49 11.12C3.12 11.11 3.57 11.7 3.72 11.94C4.44 13.15 5.59 12.81 6.05 12.6C6.12 12.08 6.33 11.73 6.56 11.53C4.78 11.33 2.92 10.64 2.92 7.58C2.92 6.71 3.23 5.99 3.74 5.43C3.66 5.23 3.38 4.41 3.82 3.31C3.82 3.31 4.49 3.1 6.02 4.13C6.66 3.95 7.34 3.86 8.02 3.86C8.7 3.86 9.38 3.95 10.02 4.13C11.55 3.09 12.22 3.31 12.22 3.31C12.66 4.41 12.38 5.23 12.3 5.43C12.81 5.99 13.12 6.7 13.12 7.58C13.12 10.65 11.25 11.33 9.47 11.53C9.76 11.78 10.01 12.26 10.01 13.01C10.01 14.08 10 14.94 10 15.21C10 15.42 10.15 15.67 10.55 15.59C13.71 14.53 16 11.53 16 8C16 3.58 12.42 0 8 0Z" transform="scale(64)" fill="#fff"/>
  </symbol>
  <!-- Verified Icon -->
  <symbol id="verified" viewBox="0 0 20 20">
    <path fill-rule="evenodd" d="M10 18a8 8 0 100-16 8 8 0 000 16zm3.707-8.707a1 1 0 00-1.414-1.414L9 11.172l-1.293-1.293a1 1 0 00-1.414 1.414l2 2a1 1 0 001.414 0l4-4z" clip-rule="evenodd" />
  </symbol>
</svg>